PathFileType	4	(X/Y/Z)	D:\Long Term Storage\D'Arcy Smith\Coord9.trc
DataRate	CameraRate	NumFrames	NumMarkers	Units	OrigDataRate	OrigDataStartFrame	OrigNumFrames
120.00	120.00	      85	4	mm	120.00	1201	      4803
Frame#	Time	M1			M2			M3			M4			
		X1	Y1	Z1	X2	Y2	Z2	X3	Y3	Z3	X4	Y4	Z4	

1201	10.000	1105.96741	396.68585	288.16425	1643.91064	356.72897	603.60052							
1202	10.008	1102.08643	394.06729	289.56882	1641.51648	356.73236	603.97382							
1203	10.017	1097.88928	390.32016	292.71948	1638.68433	356.04044	602.61853							
1204	10.025	1093.43225	385.51080	297.27246	1635.84668	355.03619	599.65784							
1205	10.033	1088.62524	379.94986	303.28336	1632.15002	353.52722	595.61017							
1206	10.042	1083.56506	373.84726	310.68622	1628.17749	351.15668	589.96643							
1207	10.050	1078.34265	367.48584	319.60007	1624.67371	349.52539	583.22864							
1208	10.058	1073.12061	360.54337	329.39423	1620.59424	347.44348	575.77295							
1209	10.067	1067.95850	353.25449	340.64200	1616.45129	345.25296	567.20721							
1210	10.075	1062.88940	346.39673	352.63657	1612.45935	343.74115	557.73309							
1211	10.083	1058.06262	339.42722	365.62866	1608.72803	342.59238	547.47754							
1212	10.092	1053.24170	333.09747	379.29709	1605.05688	341.91965	536.45636							
1213	10.100	1048.87988	327.23227	393.49606	1601.63538	341.51422	524.84027							
1214	10.108	1044.56360	322.34589	408.28607	1598.29883	341.58817	512.73199							
1215	10.117	1041.10730	317.73273	423.46573	1594.56482	341.65823	500.14767							
1216	10.125	1037.59534	314.50006	438.38449	1591.96277	342.04279	487.18182							
1217	10.133	1034.85254	311.82004	453.62399	1589.53723	343.05939	473.74826							
1218	10.142	1032.67908	309.78091	468.97134	1587.20837	344.57428	460.19583							
1219	10.150	1031.33130	308.75174	484.60666	1585.15417	346.17337	446.25003							
1220	10.158	1029.96558	308.63739	498.69482	1583.76062	348.23459	432.39352							
1221	10.167	1029.44653	309.33066	512.37006	1582.02576	350.50806	418.44162							
1222	10.175	1029.39978	310.33313	524.95831	1580.35217	352.78940	404.87595							
1223	10.183	1030.23315	311.92984	537.72974	1578.15991	354.67868	391.67349							
1224	10.192	1031.07031	313.99722	548.05225	1578.19519	357.65567	379.28693							
1225	10.200	1032.79761	316.73279	556.98273	1577.63037	360.14929	367.44644							
1226	10.208	1034.23975	318.35315	564.15503	1575.41785	362.14191	357.18616							
1227	10.217	1036.47766	320.24783	569.79010	1576.05444	364.94925	347.85162							
1228	10.225	1039.12109	322.05380	573.53558	1575.85266	366.91544	339.73465							
1229	10.233	1042.12903	323.33829	575.36469	1576.27222	368.56830	332.68878							
1230	10.242	1045.27917	324.53983	575.22540	1575.92944	369.42059	326.72708							
1231	10.250	1048.67456	325.45975	573.24103	1576.93713	370.43558	322.14240							
1232	10.258	1052.46741	326.61093	569.42712	1578.86609	370.50009	318.66061							
1233	10.267	1056.05554	326.51428	563.82233	1580.11304	370.21930	316.40579							
1234	10.275	1060.12512	327.06906	556.59167	1581.31140	368.70013	314.99844							
1235	10.283	1064.31995	327.32999	548.09296	1584.06616	367.62494	314.94803							
1236	10.292	1068.01636	328.25626	537.88129	1585.66687	365.18933	315.74939							
1237	10.300	1071.71643	329.17905	527.02057	1588.80713	362.96152	317.71558							
1238	10.308	1075.60437	330.49435	515.27533	1590.75000	359.37451	320.82520							
1239	10.317	1079.09851	332.23242	502.79974	1593.77820	356.14960	325.11343							
1240	10.325	1081.99548	334.96283	489.02371	1596.61182	352.27054	330.17459							
1241	10.333	1084.75439	337.62466	475.60449	1600.69727	348.79092	336.69122							
1242	10.342	1087.58350	340.70422	462.19690	1603.68750	344.34955	344.49707							
1243	10.350	1090.07300	344.03110	448.61655	1605.88367	339.51019	353.69849							
1244	10.358	1092.52844	347.61984	435.72684	1609.74182	335.91965	364.76935							
1245	10.367	1094.66736	351.28094	422.71252	1613.13892	331.78754	377.37244							
1246	10.375	1096.09082	355.65298	409.67908	1616.30676	327.79321	391.81586							
1247	10.383	1097.26697	360.07040	397.06836	1619.43225	324.57590	407.68420							
1248	10.392	1098.20850	364.51419	385.10062	1622.62549	322.22760	425.19748							
1249	10.400	1098.87244	368.92615	373.58279	1625.72644	321.09375	444.07776							
1250	10.408	1099.33447	373.11008	362.92404	1628.45569	320.28320	463.26563							
1251	10.417	1099.20789	376.98279	353.05780	1630.80725	321.67526	483.45001							
1252	10.425	1099.15027	379.97842	344.09958	1633.33289	323.63483	503.35873							
1253	10.433	1098.36926	382.90320	336.33972	1635.11975	326.31308	522.61212							
1254	10.442	1097.15051	385.10086	330.09714	1636.20398	329.95490	541.18658							
1255	10.450	1095.66394	386.51157	325.38699	1636.78076	334.72604	558.95117							
1256	10.458	1093.64392	387.14554	322.07520	1637.15515	339.71448	575.02069							
1257	10.467	1091.44543	386.71216	320.75241	1636.64417	344.76682	589.19623							
1258	10.475	1088.82996	385.46475	321.12656	1635.67957	349.88138	601.46875							
1259	10.483	1086.09412	383.26797	323.20221	1634.42505	354.24890	611.43085							
1260	10.492	1083.02136	380.28415	326.99823	1632.65723	358.12567	619.32996							
1261	10.500	1079.76746	376.51111	332.26306	1630.51062	361.25696	624.95557							
1262	10.508	1076.50269	371.93640	339.08728	1628.21106	363.29321	628.35114							
1263	10.517	1073.11487	366.74640	347.43713	1625.57214	364.46719	629.61127							
1264	10.525	1069.61841	361.01736	357.01367	1622.87476	364.15082	628.67285							
1265	10.533	1066.37061	355.03671	367.65591	1619.95862	363.26175	625.97394							
1266	10.542	1063.08191	348.91498	379.27216	1617.01587	361.67807	621.44574							
1267	10.550	1060.08032	343.15710	391.88062	1613.74878	359.37799	615.67206							
1268	10.558	1057.16907	337.12451	405.17285	1611.23169	357.26599	608.26611							
1269	10.567	1055.06030	331.45294	419.27188	1608.43018	354.95425	599.58246							
1270	10.575	1052.89429	326.71552	433.52878	1605.13123	352.61041	590.28857							
1271	10.583	1050.87964	322.03812	447.67535	1602.67224	350.11908	579.48486							
1272	10.592	1049.64868	317.92200	462.32709	1600.01794	348.56882	567.87152							
1273	10.600	1048.75293	314.32080	477.22092	1597.64148	347.37173	555.76270							
1274	10.608	1048.22290	311.40848	491.94193	1595.56299	346.45444	543.02576							
1275	10.617	1048.12927	309.41479	506.22394	1593.62964	346.21072	529.77307							
1276	10.625	1048.04846	308.15015	519.85736	1591.32397	346.27295	516.01019							
1277	10.633	1048.89661	307.12018	533.58215	1590.45801	346.72357	501.67993							
1278	10.642	1049.66687	307.51556	545.71460	1589.23779	347.98239	486.82010							
1279	10.650	1050.30640	308.75430	556.87531	1588.39526	349.09448	471.33350							
1280	10.658	1051.38184	310.20398	567.04016	1587.84546	351.32977	455.55508							
1281	10.667	1052.69092	312.06210	575.49561	1587.11401	354.28604	439.43829							
1282	10.675	1054.00525	314.31918	582.69147	1586.91138	357.14102	422.97455							
1283	10.683	1054.95691	316.45602	587.83398	1586.82629	360.90454	406.46368							
1284	10.692	1056.26074	318.38434	591.45752	1586.58167	365.04401	390.20493							
1285	10.700	1057.64673	320.13901	593.14551	1585.91028	370.15256	374.17618							
